<svg width="69" height="69" viewBox="0 0 69 69" fill="none" xmlns="http://www.w3.org/2000/svg">
<path d="M46.8223 33.4678C51.2807 33.4678 54.2851 36.5688 54.2851 41.1634C54.2851 45.298 50.832 48.7425 46.155 48.7425C41.0322 48.7425 37.2469 44.6079 37.2469 38.2925C37.2469 23.9378 47.714 18.1959 54.2851 17.5059V23.8213C49.8296 24.625 44.8204 29.1032 44.596 34.0443C44.8204 33.9307 45.7092 33.4678 46.8223 33.4678ZM24.1076 33.4678C28.5602 33.4678 31.5675 36.5688 31.5675 41.1634C31.5675 45.298 28.1144 48.7425 23.4374 48.7425C18.3146 48.7425 14.5293 44.6079 14.5293 38.2925C14.5293 23.9378 24.9964 18.1959 31.5675 17.5059V23.8213C27.112 24.625 22.1028 29.1032 21.8784 34.0443C22.1028 33.9307 22.9916 33.4678 24.1076 33.4678Z" fill="black"/>
</svg>
